<svg xmlns="http://www.w3.org/2000/svg" xmlns:xlink="http://www.w3.org/1999/xlink" width="100.0" height="100.0" viewBox="41.30195114292143 23.069456501962428 8.596097714157125 8.26108699607515" preserveAspectRatio="xMinYMin meet"><g transform="matrix(1,0,0,-1,0,54.400000000000006)"><path fill-rule="evenodd" fill="#66cc99" stroke="#555555" stroke-width="0.1719219542831425" opacity="0.6" d="M 49.394733192202054,25.935088935932654 L 49.25883994628005,25.588318123255085 L 49.08771007154998,25.25706868808549 L 48.88299164225462,24.944530743563945 L 48.64665620877858,24.653714200946787 L 48.38097981054031,24.38741978251591 L 48.08852105648833,24.14821204909215 L 47.77209648429836,23.938394701912628 L 47.43475343557587,23.759988396728524 L 47.07974070829056,23.614711283785525 L 46.71047726907585,23.503962461097867 L 46.33051932671134,23.428808500369477 L 45.943526083888074,23.3899731753255 L 45.553224497086504,23.387830491375656 L 45.16337338394811,23.422401083737714 L 44.777727223806664,23.49335201870899 L 44.39999999999999,23.6 L 44.03382943218004,23.741317949251197 L 43.682741943084125,23.915944897359026 L 43.35011869715618,24.122199091352435 L 43.03916303808485,24.358094190593242 L 42.75286963885263,24.621358396322364 L 42.49399566139803,24.909456330323806 L 42.26503420363886,25.219613452002758 L 42.06819028957639,25.548842778728336 L 41.90535963370888,25.89397365210912 L 41.778110384264636,26.251682273166704 L 41.687668021077286,26.618523712336916 L 41.634903553545186,26.99096508602457 L 41.620325132334656,27.365419580203934 L 41.644073155611295,27.738280993398387 L 41.705918916928994,28.1059584663721 L 41.805266807797935,28.46491106406736 L 41.94116005371994,28.811681876744924 L 42.11228992845,29.142931311914506 L 42.317008357745365,29.45546925643606 L 42.55334379122141,29.74628579905322 L 42.81902018945968,30.0125802174841 L 43.111478943511656,30.251787950907854 L 43.42790351570163,30.46160529808738 L 43.7652465644241,30.64001160327149 L 44.12025929170943,30.785288716214467 L 44.489522730924136,30.896037538902128 L 44.86948067328865,30.971191499630528 L 45.256473916111915,31.010026824674505 L 45.64677550291347,31.01216950862435 L 46.03662661605189,30.97759891626229 L 46.422272776193324,30.90664798129101 L 46.8,30.800000000000004 L 47.16617056781993,30.6586820507488 L 47.517258056915864,30.48405510264098 L 47.84988130284381,30.27780090864757 L 48.16083696191514,30.041905809406778 L 48.44713036114736,29.77864160367764 L 48.70600433860196,29.490543669676203 L 48.934965796361126,29.18038654799725 L 49.131809710423596,28.851157221271663 L 49.29464036629109,28.50602634789091 L 49.42188961573535,28.14831772683332 L 49.51233197892269,27.781476287663125 L 49.5650964464548,27.40903491397545 L 49.57967486766533,27.034580419796104 L 49.555926844388694,26.661719006601636 L 49.49408108307098,26.294041533627944 L 49.394733192202054,25.935088935932676 L 49.394733192202054,25.935088935932654 z" /></g></svg>