<svg xmlns="http://www.w3.org/2000/svg" xmlns:xlink="http://www.w3.org/1999/xlink" width="100.0" height="100.0" viewBox="41.58 26.38 3.239999999999995 3.240000000000002" preserveAspectRatio="xMinYMin meet"><g transform="matrix(1,0,0,-1,0,56.0)"><path fill-rule="evenodd" fill="#66cc99" stroke="#555555" stroke-width="0.06480000000000004" opacity="0.6" d="M 44.699999999999996,28.0 L 44.692777090008285,27.85297428950566 L 44.67117792060484,27.707364516975808 L 44.6354105035983,27.564572984118307 L 44.585819298766914,27.425974851452366 L 44.52288189652253,27.292904894761 L 44.447204418453815,27.1666446504706 L 44.35951568004409,27.048410073754532 L 44.26066017177981,26.939339828220184 L 44.15158992624546,26.84048431995589 L 44.033355349529394,26.75279558154618 L 43.90709510523899,26.67711810347747 L 43.77402514854763,26.614180701233067 L 43.63542701588168,26.564589496401688 L 43.49263548302418,26.528822079395155 L 43.34702571049433,26.507222909991704 L 43.199999999999996,26.5 L 43.05297428950565,26.507222909991704 L 42.9073645169758,26.528822079395155 L 42.764572984118296,26.564589496401688 L 42.62597485145235,26.614180701233067 L 42.492904894761004,26.67711810347747 L 42.36664465047059,26.75279558154618 L 42.24841007375453,26.84048431995589 L 42.13933982822017,26.939339828220177 L 42.04048431995589,27.048410073754532 L 41.95279558154618,27.166644650470595 L 41.87711810347746,27.292904894761 L 41.81418070123306,27.425974851452366 L 41.76458949640168,27.564572984118307 L 41.728822079395144,27.707364516975808 L 41.70722290999169,27.85297428950566 L 41.699999999999996,28.0 L 41.70722290999169,28.14702571049434 L 41.728822079395144,28.292635483024192 L 41.76458949640168,28.435427015881693 L 41.81418070123306,28.574025148547634 L 41.87711810347746,28.707095105239 L 41.95279558154617,28.8333553495294 L 42.04048431995589,28.951589926245468 L 42.13933982822017,29.060660171779816 L 42.24841007375453,29.15951568004411 L 42.36664465047059,29.24720441845382 L 42.49290489476099,29.32288189652253 L 42.62597485145235,29.385819298766933 L 42.764572984118296,29.435410503598312 L 42.9073645169758,29.471177920604845 L 43.05297428950565,29.492777090008296 L 43.199999999999996,29.5 L 43.34702571049433,29.492777090008296 L 43.49263548302418,29.471177920604845 L 43.63542701588168,29.435410503598312 L 43.774025148547615,29.385819298766933 L 43.90709510523899,29.32288189652253 L 44.033355349529394,29.24720441845382 L 44.15158992624546,29.15951568004411 L 44.26066017177981,29.06066017177983 L 44.35951568004409,28.951589926245475 L 44.4472044184538,28.833355349529413 L 44.52288189652251,28.707095105239006 L 44.585819298766914,28.57402514854764 L 44.6354105035983,28.4354270158817 L 44.67117792060484,28.2926354830242 L 44.692777090008285,28.147025710494347 L 44.699999999999996,28.000000000000014 L 44.699999999999996,28.0 z" /></g></svg>